<?xml version="1.0" encoding="UTF-8" standalone="no"?>
<!-- Generator: Adobe Illustrator 22.1.0, SVG Export Plug-In . SVG Version: 6.00 Build 0)  -->

<svg
   version="1.1"
   id="Layer_1"
   x="0px"
   y="0px"
   viewBox="0 0 1400 980"
   style="enable-background:new 0 0 1400 980;"
   xml:space="preserve"
   sodipodi:docname="audio-ui-inky.svg"
   inkscape:version="1.1.2 (b8e25be833, 2022-02-05)"
   xmlns:inkscape="http://www.inkscape.org/namespaces/inkscape"
   xmlns:sodipodi="http://sodipodi.sourceforge.net/DTD/sodipodi-0.dtd"
   xmlns="http://www.w3.org/2000/svg"
   xmlns:svg="http://www.w3.org/2000/svg"><defs
   id="defs2903" /><sodipodi:namedview
   id="namedview2901"
   pagecolor="#ffffff"
   bordercolor="#666666"
   borderopacity="1.0"
   inkscape:pageshadow="2"
   inkscape:pageopacity="0.0"
   inkscape:pagecheckerboard="0"
   showgrid="false"
   inkscape:zoom="0.77244898"
   inkscape:cx="700.36988"
   inkscape:cy="490"
   inkscape:window-width="1904"
   inkscape:window-height="1001"
   inkscape:window-x="2039"
   inkscape:window-y="16"
   inkscape:window-maximized="0"
   inkscape:current-layer="Layer_1" />
<style
   type="text/css"
   id="style2238">
	.st0{fill:#2E313A;}
	.st1{fill:#252832;}
	.st2{fill:#15181E;}
	.st3{fill:#34383F;}
	.st4{fill:#09D2C2;}
	.st5{fill:#07080A;}
	.st6{fill:#0E1014;}
</style>
<rect
   class="st0"
   width="1400"
   height="980"
   id="rect2240" />
<g
   id="g2898">
	<g
   id="g2286">
		<circle
   class="st1"
   cx="90.8"
   cy="148.5"
   r="53.8"
   id="circle2242" />
		<circle
   class="st2"
   cx="90.8"
   cy="148.5"
   r="44.1"
   id="circle2244" />
		<circle
   class="st1"
   cx="90.8"
   cy="148.5"
   r="38.3"
   id="circle2246" />
		<path
   class="st3"
   d="M129.1,148.5c0,0.7,0,1.3-0.1,2c-1-20.2-17.8-36.3-38.3-36.3c-20.5,0-37.2,16.1-38.3,36.3    c0-0.7-0.1-1.3-0.1-2c0-21.2,17.2-38.3,38.3-38.3C112,110.2,129.1,127.3,129.1,148.5z"
   id="path2248" />
		<path
   class="st4"
   d="M99.6,133.1v0.3c0,0.4,0.2,0.8,0.6,0.9c5.3,2.6,8.9,8,8.9,14.2c0,6.2-3.6,11.7-8.9,14.2    c-0.4,0.2-0.6,0.5-0.6,0.9v0.3c0,0.8,0.8,1.3,1.5,0.9c6.1-2.9,10.3-9.1,10.3-16.3s-4.2-13.4-10.3-16.3    C100.4,131.8,99.6,132.3,99.6,133.1z"
   id="path2250" />
		<path
   class="st4"
   d="M99.6,138.5L99.6,138.5c0,0.3,0.2,0.7,0.4,0.9c2.8,2.1,4.7,5.4,4.7,9.2c0,3.8-1.8,7.1-4.7,9.2    c-0.3,0.2-0.4,0.5-0.4,0.9l0,0c0,0.8,1,1.4,1.7,0.9c3.4-2.4,5.5-6.4,5.5-10.9s-2.2-8.4-5.5-10.9    C100.6,137.1,99.6,137.6,99.6,138.5z"
   id="path2252" />
		<path
   class="st4"
   d="M99.6,144.7L99.6,144.7c0,0.2,0,0.4,0.1,0.5c0.5,1,0.8,2.1,0.8,3.3s-0.3,2.3-0.8,3.3    c-0.1,0.1-0.1,0.3-0.1,0.5v0c0,1.1,1.5,1.5,2,0.5c0.7-1.3,1.1-2.8,1.1-4.3s-0.4-3-1.1-4.3C101,143.2,99.6,143.6,99.6,144.7z"
   id="path2254" />
		<g
   id="g2260">
			<path
   class="st4"
   d="M80.1,142.3v12.4l12.7,8.5c0.9,0.6,2.2,0,2.2-1.2v-27c0-1.1-1.2-1.8-2.2-1.2L80.1,142.3z"
   id="path2256" />
			<path
   class="st4"
   d="M71.6,154.7h6v-12.4h-6c-0.8,0-1.4,0.6-1.4,1.4v9.6C70.2,154.1,70.8,154.7,71.6,154.7z"
   id="path2258" />
		</g>
		<path
   class="st1"
   d="M157.7,148.5L157.7,148.5c0-7.3,5.9-13.1,13.1-13.1h455.2c7.3,0,13.1,5.9,13.1,13.1v0    c0,7.3-5.9,13.1-13.1,13.1H170.9C163.6,161.7,157.7,155.8,157.7,148.5z"
   id="path2262" />
		<path
   class="st5"
   d="M164.3,148.5L164.3,148.5c0-4.4,3.6-8,8-8h453.5c4.4,0,8,3.6,8,8l0,0c0,4.4-3.6,8-8,8H172.3    C167.9,156.5,164.3,152.9,164.3,148.5z"
   id="path2264" />
		<path
   class="st4"
   d="M164.6,148.5L164.6,148.5c0-3.1,2.5-5.6,5.6-5.6h347.7v11.2H170.2C167.1,154.1,164.6,151.6,164.6,148.5z"
   id="path2266" />
		<g
   id="g2284">
			<circle
   class="st1"
   cx="518.3"
   cy="148.5"
   r="18.8"
   id="circle2268" />
			<path
   class="st3"
   d="M537.1,148.6c0,9.8-7.5,17.9-17.1,18.7c8.2-0.8,14.7-7.8,14.7-16.2c0-9-7.3-16.3-16.3-16.3     c-9,0-16.3,7.3-16.3,16.3c0,8.5,6.4,15.4,14.7,16.2c-9.6-0.8-17.1-8.9-17.1-18.7c0-10.4,8.4-18.8,18.8-18.8     C528.7,129.7,537.1,138.2,537.1,148.6z"
   id="path2270" />
			<g
   id="g2282">
				<g
   id="g2280">
					<g
   id="g2278">
						<path
   class="st3"
   d="M526.4,150h-16.3c-0.8,0-1.5-0.7-1.5-1.5l0,0c0-0.8,0.7-1.5,1.5-1.5h16.3c0.8,0,1.5,0.7,1.5,1.5l0,0        C527.9,149.3,527.3,150,526.4,150z"
   id="path2272" />
						<path
   class="st3"
   d="M526.4,141.8h-16.3c-0.8,0-1.5-0.7-1.5-1.5l0,0c0-0.8,0.7-1.5,1.5-1.5h16.3c0.8,0,1.5,0.7,1.5,1.5l0,0        C527.9,141.2,527.3,141.8,526.4,141.8z"
   id="path2274" />
						<path
   class="st3"
   d="M526.4,158.1h-16.3c-0.8,0-1.5-0.7-1.5-1.5l0,0c0-0.8,0.7-1.5,1.5-1.5h16.3c0.8,0,1.5,0.7,1.5,1.5l0,0        C527.9,157.5,527.3,158.1,526.4,158.1z"
   id="path2276" />
					</g>
				</g>
			</g>
		</g>
	</g>
	<g
   id="g2332">
		
			<ellipse
   transform="matrix(0.7071 -0.7071 0.7071 0.7071 -183.1591 151.0948)"
   class="st1"
   cx="90.8"
   cy="296.6"
   rx="53.8"
   ry="53.8"
   id="ellipse2288" />
		<circle
   class="st2"
   cx="90.8"
   cy="296.6"
   r="44.1"
   id="circle2290" />
		
			<ellipse
   transform="matrix(0.1602 -0.9871 0.9871 0.1602 -216.5474 338.7591)"
   class="st6"
   cx="90.8"
   cy="296.6"
   rx="38.3"
   ry="38.3"
   id="ellipse2292" />
		<path
   class="st5"
   d="M129.1,296.6c0,0.7,0,1.3-0.1,2c-1-20.2-17.8-36.3-38.3-36.3c-20.5,0-37.2,16.1-38.3,36.3    c0-0.7-0.1-1.3-0.1-2c0-21.2,17.2-38.3,38.3-38.3C112,258.3,129.1,275.5,129.1,296.6z"
   id="path2294" />
		<path
   class="st1"
   d="M99.6,281.2v0.3c0,0.4,0.2,0.8,0.6,0.9c5.3,2.6,8.9,8,8.9,14.2c0,6.2-3.6,11.7-8.9,14.2    c-0.4,0.2-0.6,0.5-0.6,0.9v0.3c0,0.8,0.8,1.3,1.5,0.9c6.1-2.9,10.3-9.1,10.3-16.3s-4.2-13.4-10.3-16.3    C100.4,280,99.6,280.5,99.6,281.2z"
   id="path2296" />
		<path
   class="st1"
   d="M99.6,286.6L99.6,286.6c0,0.3,0.2,0.7,0.4,0.9c2.8,2.1,4.7,5.4,4.7,9.2c0,3.8-1.8,7.1-4.7,9.2    c-0.3,0.2-0.4,0.5-0.4,0.9l0,0c0,0.8,1,1.4,1.7,0.9c3.4-2.4,5.5-6.4,5.5-10.9c0-4.5-2.2-8.4-5.5-10.9    C100.6,285.3,99.6,285.8,99.6,286.6z"
   id="path2298" />
		<path
   class="st1"
   d="M99.6,292.8L99.6,292.8c0,0.2,0,0.4,0.1,0.5c0.5,1,0.8,2.1,0.8,3.3c0,1.2-0.3,2.3-0.8,3.3    c-0.1,0.1-0.1,0.3-0.1,0.5v0c0,1.1,1.5,1.5,2,0.5c0.7-1.3,1.1-2.8,1.1-4.3c0-1.6-0.4-3-1.1-4.3C101,291.4,99.6,291.8,99.6,292.8z"
   id="path2300" />
		<g
   id="g2306">
			<path
   class="st1"
   d="M80.1,290.4v12.4l12.7,8.5c0.9,0.6,2.2,0,2.2-1.2v-27c0-1.1-1.2-1.8-2.2-1.2L80.1,290.4z"
   id="path2302" />
			<path
   class="st1"
   d="M71.6,302.8h6v-12.4h-6c-0.8,0-1.4,0.6-1.4,1.4v9.6C70.2,302.2,70.8,302.8,71.6,302.8z"
   id="path2304" />
		</g>
		<path
   class="st1"
   d="M157.7,296.6L157.7,296.6c0-7.3,5.9-13.1,13.1-13.1h455.2c7.3,0,13.1,5.9,13.1,13.1v0    c0,7.3-5.9,13.1-13.1,13.1H170.9C163.6,309.8,157.7,303.9,157.7,296.6z"
   id="path2308" />
		<path
   class="st5"
   d="M164.3,296.6L164.3,296.6c0-4.4,3.6-8,8-8h453.5c4.4,0,8,3.6,8,8l0,0c0,4.4-3.6,8-8,8H172.3    C167.9,304.6,164.3,301,164.3,296.6z"
   id="path2310" />
		<path
   class="st6"
   d="M164.6,296.6L164.6,296.6c0-3.1,2.5-5.6,5.6-5.6h124.4v11.2H170.2C167.1,302.2,164.6,299.7,164.6,296.6z"
   id="path2312" />
		<g
   id="g2330">
			<circle
   class="st1"
   cx="296.2"
   cy="296.6"
   r="18.8"
   id="circle2314" />
			<path
   class="st3"
   d="M315,296.7c0,9.8-7.5,17.9-17.1,18.7c8.2-0.8,14.7-7.8,14.7-16.2c0-9-7.3-16.3-16.3-16.3     c-9,0-16.3,7.3-16.3,16.3c0,8.5,6.4,15.4,14.7,16.2c-9.6-0.8-17.1-8.9-17.1-18.7c0-10.4,8.4-18.8,18.8-18.8     C306.5,277.9,315,286.3,315,296.7z"
   id="path2316" />
			<g
   id="g2328">
				<g
   id="g2326">
					<g
   id="g2324">
						<path
   class="st3"
   d="M304.3,298.1H288c-0.8,0-1.5-0.7-1.5-1.5l0,0c0-0.8,0.7-1.5,1.5-1.5h16.3c0.8,0,1.5,0.7,1.5,1.5l0,0        C305.8,297.5,305.1,298.1,304.3,298.1z"
   id="path2318" />
						<path
   class="st3"
   d="M304.3,290H288c-0.8,0-1.5-0.7-1.5-1.5l0,0c0-0.8,0.7-1.5,1.5-1.5h16.3c0.8,0,1.5,0.7,1.5,1.5l0,0        C305.8,289.3,305.1,290,304.3,290z"
   id="path2320" />
						<path
   class="st3"
   d="M304.3,306.3H288c-0.8,0-1.5-0.7-1.5-1.5l0,0c0-0.8,0.7-1.5,1.5-1.5h16.3c0.8,0,1.5,0.7,1.5,1.5l0,0        C305.8,305.6,305.1,306.3,304.3,306.3z"
   id="path2322" />
					</g>
				</g>
			</g>
		</g>
	</g>
	<g
   id="g2390">
		<path
   class="st1"
   d="M222.7,720.2L222.7,720.2c-9.1,0-16.5-7.4-16.5-16.5V404.3c0-9.1,7.4-16.5,16.5-16.5l0,0    c9.1,0,16.5,7.4,16.5,16.5v299.5C239.1,712.8,231.8,720.2,222.7,720.2z"
   id="path2334" />
		<path
   class="st5"
   d="M222.7,711.9L222.7,711.9c-5.5,0-10-4.5-10-10V404.6c0-5.5,4.5-10,10-10l0,0c5.5,0,10,4.5,10,10v297.3    C232.6,707.4,228.2,711.9,222.7,711.9z"
   id="path2336" />
		<path
   class="st4"
   d="M222.7,711.6L222.7,711.6c-3.9,0-7-3.1-7-7v-74.7h14v74.7C229.7,708.5,226.5,711.6,222.7,711.6z"
   id="path2338" />
		<g
   id="g2354">
			<g
   id="g2344">
				<path
   class="st1"
   d="M230.1,646.9h-14.8c-7.8,0-14.1-6.3-14.1-14.1v-34c0-7.8,6.3-14.1,14.1-14.1h14.8c7.8,0,14.1,6.3,14.1,14.1      v34C244.1,640.6,237.8,646.9,230.1,646.9z"
   id="path2340" />
				<path
   class="st3"
   d="M244.1,598.8v34c0,7.8-6.3,14.1-14.1,14.1h-0.9c6.8,0,12.3-5.5,12.3-12.3v-29.9c0-6.8-5.5-12.3-12.3-12.3      h-13c-6.8,0-12.3,5.5-12.3,12.3v29.9c0,6.8,5.5,12.3,12.3,12.3h-0.9c-7.8,0-14.1-6.3-14.1-14.1v-34c0-7.8,6.3-14.1,14.1-14.1      h14.8C237.8,584.8,244.1,591.1,244.1,598.8z"
   id="path2342" />
			</g>
			<g
   id="g2352">
				<path
   class="st3"
   d="M238.2,617.3h-31.1c-0.8,0-1.5-0.7-1.5-1.5l0,0c0-0.8,0.7-1.5,1.5-1.5h31.1c0.8,0,1.5,0.7,1.5,1.5l0,0      C239.7,616.6,239,617.3,238.2,617.3z"
   id="path2346" />
				<path
   class="st3"
   d="M238.2,604.7h-31.1c-0.8,0-1.5-0.7-1.5-1.5l0,0c0-0.8,0.7-1.5,1.5-1.5h31.1c0.8,0,1.5,0.7,1.5,1.5l0,0      C239.7,604.1,239,604.7,238.2,604.7z"
   id="path2348" />
				<path
   class="st3"
   d="M238.2,629.9h-31.1c-0.8,0-1.5-0.7-1.5-1.5l0,0c0-0.8,0.7-1.5,1.5-1.5h31.1c0.8,0,1.5,0.7,1.5,1.5l0,0      C239.7,629.2,239,629.9,238.2,629.9z"
   id="path2350" />
			</g>
		</g>
		<path
   class="st2"
   d="M306.2,412.6h-44.4c-1.6,0-3-1.3-3-3l0,0c0-1.6,1.3-3,3-3h44.4c1.6,0,3,1.3,3,3l0,0    C309.2,411.3,307.9,412.6,306.2,412.6z"
   id="path2356" />
		<path
   class="st4"
   d="M306.2,701.1h-44.4c-1.6,0-3-1.3-3-3l0,0c0-1.6,1.3-3,3-3h44.4c1.6,0,3,1.3,3,3l0,0    C309.2,699.8,307.9,701.1,306.2,701.1z"
   id="path2358" />
		<path
   class="st2"
   d="M306.2,556.9h-44.4c-1.6,0-3-1.3-3-3l0,0c0-1.6,1.3-3,3-3h44.4c1.6,0,3,1.3,3,3l0,0    C309.2,555.6,307.9,556.9,306.2,556.9z"
   id="path2360" />
		<path
   class="st2"
   d="M297.3,432.2h-26.6c-1.6,0-3-1.3-3-3l0,0c0-1.6,1.3-3,3-3h26.6c1.6,0,3,1.3,3,3l0,0    C300.3,430.9,299,432.2,297.3,432.2z"
   id="path2362" />
		<path
   class="st2"
   d="M297.3,450h-26.6c-1.6,0-3-1.3-3-3l0,0c0-1.6,1.3-3,3-3h26.6c1.6,0,3,1.3,3,3l0,0    C300.3,448.6,299,450,297.3,450z"
   id="path2364" />
		<path
   class="st2"
   d="M297.3,467.7h-26.6c-1.6,0-3-1.3-3-3l0,0c0-1.6,1.3-3,3-3h26.6c1.6,0,3,1.3,3,3l0,0    C300.3,466.4,299,467.7,297.3,467.7z"
   id="path2366" />
		<path
   class="st2"
   d="M297.3,485.5h-26.6c-1.6,0-3-1.3-3-3l0,0c0-1.6,1.3-3,3-3h26.6c1.6,0,3,1.3,3,3l0,0    C300.3,484.1,299,485.5,297.3,485.5z"
   id="path2368" />
		<path
   class="st2"
   d="M297.3,503.2h-26.6c-1.6,0-3-1.3-3-3v0c0-1.6,1.3-3,3-3h26.6c1.6,0,3,1.3,3,3v0    C300.3,501.9,299,503.2,297.3,503.2z"
   id="path2370" />
		<path
   class="st2"
   d="M297.3,521h-26.6c-1.6,0-3-1.3-3-3l0,0c0-1.6,1.3-3,3-3h26.6c1.6,0,3,1.3,3,3l0,0    C300.3,519.6,299,521,297.3,521z"
   id="path2372" />
		<path
   class="st2"
   d="M297.3,538.7h-26.6c-1.6,0-3-1.3-3-3l0,0c0-1.6,1.3-3,3-3h26.6c1.6,0,3,1.3,3,3l0,0    C300.3,537.4,299,538.7,297.3,538.7z"
   id="path2374" />
		<path
   class="st2"
   d="M297.3,575.7h-26.6c-1.6,0-3-1.3-3-3l0,0c0-1.6,1.3-3,3-3h26.6c1.6,0,3,1.3,3,3l0,0    C300.3,574.4,299,575.7,297.3,575.7z"
   id="path2376" />
		<path
   class="st2"
   d="M297.3,593.5h-26.6c-1.6,0-3-1.3-3-3l0,0c0-1.6,1.3-3,3-3h26.6c1.6,0,3,1.3,3,3l0,0    C300.3,592.1,299,593.5,297.3,593.5z"
   id="path2378" />
		<path
   class="st2"
   d="M297.3,611.2h-26.6c-1.6,0-3-1.3-3-3l0,0c0-1.6,1.3-3,3-3h26.6c1.6,0,3,1.3,3,3l0,0    C300.3,609.9,299,611.2,297.3,611.2z"
   id="path2380" />
		<path
   class="st4"
   d="M297.3,629h-26.6c-1.6,0-3-1.3-3-3l0,0c0-1.6,1.3-3,3-3h26.6c1.6,0,3,1.3,3,3l0,0    C300.3,627.6,299,629,297.3,629z"
   id="path2382" />
		<path
   class="st4"
   d="M297.3,646.7h-26.6c-1.6,0-3-1.3-3-3v0c0-1.6,1.3-3,3-3h26.6c1.6,0,3,1.3,3,3v0    C300.3,645.4,299,646.7,297.3,646.7z"
   id="path2384" />
		<path
   class="st4"
   d="M297.3,664.5h-26.6c-1.6,0-3-1.3-3-3l0,0c0-1.6,1.3-3,3-3h26.6c1.6,0,3,1.3,3,3l0,0    C300.3,663.1,299,664.5,297.3,664.5z"
   id="path2386" />
		<path
   class="st4"
   d="M297.3,682.2h-26.6c-1.6,0-3-1.3-3-3l0,0c0-1.6,1.3-3,3-3h26.6c1.6,0,3,1.3,3,3l0,0    C300.3,680.9,299,682.2,297.3,682.2z"
   id="path2388" />
	</g>
	<g
   id="g2448">
		<path
   class="st1"
   d="M386.9,720.2L386.9,720.2c-9.1,0-16.5-7.4-16.5-16.5V404.3c0-9.1,7.4-16.5,16.5-16.5l0,0    c9.1,0,16.5,7.4,16.5,16.5v299.5C403.3,712.8,396,720.2,386.9,720.2z"
   id="path2392" />
		<path
   class="st5"
   d="M386.9,711.9L386.9,711.9c-5.5,0-10-4.5-10-10V404.6c0-5.5,4.5-10,10-10l0,0c5.5,0,10,4.5,10,10v297.3    C396.8,707.4,392.4,711.9,386.9,711.9z"
   id="path2394" />
		<path
   class="st4"
   d="M386.9,711.6L386.9,711.6c-3.9,0-7-3.1-7-7V524.9h14v179.8C393.9,708.5,390.7,711.6,386.9,711.6z"
   id="path2396" />
		<g
   id="g2412">
			<g
   id="g2402">
				<path
   class="st1"
   d="M394.3,541.9h-14.8c-7.8,0-14.1-6.3-14.1-14.1v-34c0-7.8,6.3-14.1,14.1-14.1h14.8c7.8,0,14.1,6.3,14.1,14.1      v34C408.3,535.6,402,541.9,394.3,541.9z"
   id="path2398" />
				<path
   class="st3"
   d="M408.3,493.8v34c0,7.8-6.3,14.1-14.1,14.1h-0.9c6.8,0,12.3-5.5,12.3-12.3v-29.9c0-6.8-5.5-12.3-12.3-12.3      h-13c-6.8,0-12.3,5.5-12.3,12.3v29.9c0,6.8,5.5,12.3,12.3,12.3h-0.9c-7.8,0-14.1-6.3-14.1-14.1v-34c0-7.8,6.3-14.1,14.1-14.1      h14.8C402,479.7,408.3,486,408.3,493.8z"
   id="path2400" />
			</g>
			<g
   id="g2410">
				<path
   class="st3"
   d="M402.4,512.3h-31.1c-0.8,0-1.5-0.7-1.5-1.5l0,0c0-0.8,0.7-1.5,1.5-1.5h31.1c0.8,0,1.5,0.7,1.5,1.5l0,0      C403.9,511.6,403.2,512.3,402.4,512.3z"
   id="path2404" />
				<path
   class="st3"
   d="M402.4,499.7h-31.1c-0.8,0-1.5-0.7-1.5-1.5l0,0c0-0.8,0.7-1.5,1.5-1.5h31.1c0.8,0,1.5,0.7,1.5,1.5l0,0      C403.9,499,403.2,499.7,402.4,499.7z"
   id="path2406" />
				<path
   class="st3"
   d="M402.4,524.9h-31.1c-0.8,0-1.5-0.7-1.5-1.5l0,0c0-0.8,0.7-1.5,1.5-1.5h31.1c0.8,0,1.5,0.7,1.5,1.5l0,0      C403.9,524.2,403.2,524.9,402.4,524.9z"
   id="path2408" />
			</g>
		</g>
		<path
   class="st2"
   d="M470.4,412.6H426c-1.6,0-3-1.3-3-3l0,0c0-1.6,1.3-3,3-3h44.4c1.6,0,3,1.3,3,3l0,0    C473.4,411.3,472.1,412.6,470.4,412.6z"
   id="path2414" />
		<path
   class="st4"
   d="M470.4,701.1H426c-1.6,0-3-1.3-3-3l0,0c0-1.6,1.3-3,3-3h44.4c1.6,0,3,1.3,3,3l0,0    C473.4,699.8,472.1,701.1,470.4,701.1z"
   id="path2416" />
		<path
   class="st4"
   d="M470.4,556.9H426c-1.6,0-3-1.3-3-3l0,0c0-1.6,1.3-3,3-3h44.4c1.6,0,3,1.3,3,3l0,0    C473.4,555.6,472.1,556.9,470.4,556.9z"
   id="path2418" />
		<path
   class="st2"
   d="M461.6,432.2h-26.6c-1.6,0-3-1.3-3-3l0,0c0-1.6,1.3-3,3-3h26.6c1.6,0,3,1.3,3,3l0,0    C464.5,430.9,463.2,432.2,461.6,432.2z"
   id="path2420" />
		<path
   class="st2"
   d="M461.6,450h-26.6c-1.6,0-3-1.3-3-3l0,0c0-1.6,1.3-3,3-3h26.6c1.6,0,3,1.3,3,3l0,0    C464.5,448.6,463.2,450,461.6,450z"
   id="path2422" />
		<path
   class="st2"
   d="M461.6,467.7h-26.6c-1.6,0-3-1.3-3-3l0,0c0-1.6,1.3-3,3-3h26.6c1.6,0,3,1.3,3,3l0,0    C464.5,466.4,463.2,467.7,461.6,467.7z"
   id="path2424" />
		<path
   class="st2"
   d="M461.6,485.5h-26.6c-1.6,0-3-1.3-3-3l0,0c0-1.6,1.3-3,3-3h26.6c1.6,0,3,1.3,3,3l0,0    C464.5,484.1,463.2,485.5,461.6,485.5z"
   id="path2426" />
		<path
   class="st2"
   d="M461.6,503.2h-26.6c-1.6,0-3-1.3-3-3v0c0-1.6,1.3-3,3-3h26.6c1.6,0,3,1.3,3,3v0    C464.5,501.9,463.2,503.2,461.6,503.2z"
   id="path2428" />
		<path
   class="st4"
   d="M461.6,521h-26.6c-1.6,0-3-1.3-3-3l0,0c0-1.6,1.3-3,3-3h26.6c1.6,0,3,1.3,3,3l0,0    C464.5,519.6,463.2,521,461.6,521z"
   id="path2430" />
		<path
   class="st4"
   d="M461.6,538.7h-26.6c-1.6,0-3-1.3-3-3l0,0c0-1.6,1.3-3,3-3h26.6c1.6,0,3,1.3,3,3l0,0    C464.5,537.4,463.2,538.7,461.6,538.7z"
   id="path2432" />
		<path
   class="st4"
   d="M461.6,575.7h-26.6c-1.6,0-3-1.3-3-3l0,0c0-1.6,1.3-3,3-3h26.6c1.6,0,3,1.3,3,3l0,0    C464.5,574.4,463.2,575.7,461.6,575.7z"
   id="path2434" />
		<path
   class="st4"
   d="M461.6,593.5h-26.6c-1.6,0-3-1.3-3-3l0,0c0-1.6,1.3-3,3-3h26.6c1.6,0,3,1.3,3,3l0,0    C464.5,592.1,463.2,593.5,461.6,593.5z"
   id="path2436" />
		<path
   class="st4"
   d="M461.6,611.2h-26.6c-1.6,0-3-1.3-3-3l0,0c0-1.6,1.3-3,3-3h26.6c1.6,0,3,1.3,3,3l0,0    C464.5,609.9,463.2,611.2,461.6,611.2z"
   id="path2438" />
		<path
   class="st4"
   d="M461.6,629h-26.6c-1.6,0-3-1.3-3-3l0,0c0-1.6,1.3-3,3-3h26.6c1.6,0,3,1.3,3,3l0,0    C464.5,627.6,463.2,629,461.6,629z"
   id="path2440" />
		<path
   class="st4"
   d="M461.6,646.7h-26.6c-1.6,0-3-1.3-3-3v0c0-1.6,1.3-3,3-3h26.6c1.6,0,3,1.3,3,3v0    C464.5,645.4,463.2,646.7,461.6,646.7z"
   id="path2442" />
		<path
   class="st4"
   d="M461.6,664.5h-26.6c-1.6,0-3-1.3-3-3l0,0c0-1.6,1.3-3,3-3h26.6c1.6,0,3,1.3,3,3l0,0    C464.5,663.1,463.2,664.5,461.6,664.5z"
   id="path2444" />
		<path
   class="st4"
   d="M461.6,682.2h-26.6c-1.6,0-3-1.3-3-3l0,0c0-1.6,1.3-3,3-3h26.6c1.6,0,3,1.3,3,3l0,0    C464.5,680.9,463.2,682.2,461.6,682.2z"
   id="path2446" />
	</g>
	<g
   id="g2506">
		<path
   class="st1"
   d="M551.1,720.2L551.1,720.2c-9.1,0-16.5-7.4-16.5-16.5V404.3c0-9.1,7.4-16.5,16.5-16.5l0,0    c9.1,0,16.5,7.4,16.5,16.5v299.5C567.5,712.8,560.2,720.2,551.1,720.2z"
   id="path2450" />
		<path
   class="st5"
   d="M551.1,711.9L551.1,711.9c-5.5,0-10-4.5-10-10V404.6c0-5.5,4.5-10,10-10l0,0c5.5,0,10,4.5,10,10v297.3    C561,707.4,556.6,711.9,551.1,711.9z"
   id="path2452" />
		<path
   class="st4"
   d="M551.1,711.6L551.1,711.6c-3.9,0-7-3.1-7-7v-25.9h14v25.9C558.1,708.5,555,711.6,551.1,711.6z"
   id="path2454" />
		<g
   id="g2470">
			<g
   id="g2460">
				<path
   class="st1"
   d="M558.5,703.1h-14.8c-7.8,0-14.1-6.3-14.1-14.1v-34c0-7.8,6.3-14.1,14.1-14.1h14.8c7.8,0,14.1,6.3,14.1,14.1      v34C572.5,696.8,566.2,703.1,558.5,703.1z"
   id="path2456" />
				<path
   class="st3"
   d="M572.5,655v34c0,7.8-6.3,14.1-14.1,14.1h-0.9c6.8,0,12.3-5.5,12.3-12.3v-29.9c0-6.8-5.5-12.3-12.3-12.3h-13      c-6.8,0-12.3,5.5-12.3,12.3v29.9c0,6.8,5.5,12.3,12.3,12.3h-0.9c-7.8,0-14.1-6.3-14.1-14.1v-34c0-7.8,6.3-14.1,14.1-14.1h14.8      C566.2,641,572.5,647.3,572.5,655z"
   id="path2458" />
			</g>
			<g
   id="g2468">
				<path
   class="st3"
   d="M566.6,673.5h-31.1c-0.8,0-1.5-0.7-1.5-1.5l0,0c0-0.8,0.7-1.5,1.5-1.5h31.1c0.8,0,1.5,0.7,1.5,1.5l0,0      C568.1,672.9,567.4,673.5,566.6,673.5z"
   id="path2462" />
				<path
   class="st3"
   d="M566.6,661h-31.1c-0.8,0-1.5-0.7-1.5-1.5l0,0c0-0.8,0.7-1.5,1.5-1.5h31.1c0.8,0,1.5,0.7,1.5,1.5l0,0      C568.1,660.3,567.4,661,566.6,661z"
   id="path2464" />
				<path
   class="st3"
   d="M566.6,686.1h-31.1c-0.8,0-1.5-0.7-1.5-1.5l0,0c0-0.8,0.7-1.5,1.5-1.5h31.1c0.8,0,1.5,0.7,1.5,1.5l0,0      C568.1,685.4,567.4,686.1,566.6,686.1z"
   id="path2466" />
			</g>
		</g>
		<path
   class="st2"
   d="M634.6,412.6h-44.4c-1.6,0-3-1.3-3-3l0,0c0-1.6,1.3-3,3-3h44.4c1.6,0,3,1.3,3,3l0,0    C637.6,411.3,636.3,412.6,634.6,412.6z"
   id="path2472" />
		<path
   class="st4"
   d="M634.6,701.1h-44.4c-1.6,0-3-1.3-3-3l0,0c0-1.6,1.3-3,3-3h44.4c1.6,0,3,1.3,3,3l0,0    C637.6,699.8,636.3,701.1,634.6,701.1z"
   id="path2474" />
		<path
   class="st2"
   d="M634.6,556.9h-44.4c-1.6,0-3-1.3-3-3l0,0c0-1.6,1.3-3,3-3h44.4c1.6,0,3,1.3,3,3l0,0    C637.6,555.6,636.3,556.9,634.6,556.9z"
   id="path2476" />
		<path
   class="st2"
   d="M625.8,432.2h-26.6c-1.6,0-3-1.3-3-3l0,0c0-1.6,1.3-3,3-3h26.6c1.6,0,3,1.3,3,3l0,0    C628.7,430.9,627.4,432.2,625.8,432.2z"
   id="path2478" />
		<path
   class="st2"
   d="M625.8,450h-26.6c-1.6,0-3-1.3-3-3l0,0c0-1.6,1.3-3,3-3h26.6c1.6,0,3,1.3,3,3l0,0    C628.7,448.6,627.4,450,625.8,450z"
   id="path2480" />
		<path
   class="st2"
   d="M625.8,467.7h-26.6c-1.6,0-3-1.3-3-3l0,0c0-1.6,1.3-3,3-3h26.6c1.6,0,3,1.3,3,3l0,0    C628.7,466.4,627.4,467.7,625.8,467.7z"
   id="path2482" />
		<path
   class="st2"
   d="M625.8,485.5h-26.6c-1.6,0-3-1.3-3-3l0,0c0-1.6,1.3-3,3-3h26.6c1.6,0,3,1.3,3,3l0,0    C628.7,484.1,627.4,485.5,625.8,485.5z"
   id="path2484" />
		<path
   class="st2"
   d="M625.8,503.2h-26.6c-1.6,0-3-1.3-3-3v0c0-1.6,1.3-3,3-3h26.6c1.6,0,3,1.3,3,3v0    C628.7,501.9,627.4,503.2,625.8,503.2z"
   id="path2486" />
		<path
   class="st2"
   d="M625.8,521h-26.6c-1.6,0-3-1.3-3-3l0,0c0-1.6,1.3-3,3-3h26.6c1.6,0,3,1.3,3,3l0,0    C628.7,519.6,627.4,521,625.8,521z"
   id="path2488" />
		<path
   class="st2"
   d="M625.8,538.7h-26.6c-1.6,0-3-1.3-3-3l0,0c0-1.6,1.3-3,3-3h26.6c1.6,0,3,1.3,3,3l0,0    C628.7,537.4,627.4,538.7,625.8,538.7z"
   id="path2490" />
		<path
   class="st2"
   d="M625.8,575.7h-26.6c-1.6,0-3-1.3-3-3l0,0c0-1.6,1.3-3,3-3h26.6c1.6,0,3,1.3,3,3l0,0    C628.7,574.4,627.4,575.7,625.8,575.7z"
   id="path2492" />
		<path
   class="st2"
   d="M625.8,593.5h-26.6c-1.6,0-3-1.3-3-3l0,0c0-1.6,1.3-3,3-3h26.6c1.6,0,3,1.3,3,3l0,0    C628.7,592.1,627.4,593.5,625.8,593.5z"
   id="path2494" />
		<path
   class="st2"
   d="M625.8,611.2h-26.6c-1.6,0-3-1.3-3-3l0,0c0-1.6,1.3-3,3-3h26.6c1.6,0,3,1.3,3,3l0,0    C628.7,609.9,627.4,611.2,625.8,611.2z"
   id="path2496" />
		<path
   class="st2"
   d="M625.8,629h-26.6c-1.6,0-3-1.3-3-3l0,0c0-1.6,1.3-3,3-3h26.6c1.6,0,3,1.3,3,3l0,0    C628.7,627.6,627.4,629,625.8,629z"
   id="path2498" />
		<path
   class="st2"
   d="M625.8,646.7h-26.6c-1.6,0-3-1.3-3-3v0c0-1.6,1.3-3,3-3h26.6c1.6,0,3,1.3,3,3v0    C628.7,645.4,627.4,646.7,625.8,646.7z"
   id="path2500" />
		<path
   class="st2"
   d="M625.8,664.5h-26.6c-1.6,0-3-1.3-3-3l0,0c0-1.6,1.3-3,3-3h26.6c1.6,0,3,1.3,3,3l0,0    C628.7,663.1,627.4,664.5,625.8,664.5z"
   id="path2502" />
		<path
   class="st4"
   d="M625.8,682.2h-26.6c-1.6,0-3-1.3-3-3l0,0c0-1.6,1.3-3,3-3h26.6c1.6,0,3,1.3,3,3l0,0    C628.7,680.9,627.4,682.2,625.8,682.2z"
   id="path2504" />
	</g>
	<g
   id="g2602">
		<g
   id="g2514">
			<path
   class="st1"
   d="M37,775.9L37,775.9c0-9.1,7.4-16.5,16.5-16.5h585c9.1,0,16.5,7.4,16.5,16.5l0,0c0,9.1-7.4,16.5-16.5,16.5     h-585C44.4,792.4,37,785,37,775.9z"
   id="path2508" />
			<path
   class="st5"
   d="M45.3,775.9L45.3,775.9c0-5.5,4.5-10,10-10h582.8c5.5,0,10,4.5,10,10l0,0c0,5.5-4.5,10-10,10H55.3     C49.8,785.9,45.3,781.4,45.3,775.9z"
   id="path2510" />
			<path
   class="st4"
   d="M45.6,775.9L45.6,775.9c0-3.9,3.1-7,7-7h352.5v14H52.6C48.7,782.9,45.6,779.8,45.6,775.9z"
   id="path2512" />
		</g>
		<g
   id="g2532">
			<g
   id="g2518">
				<path
   class="st1"
   d="M375.5,783.3v-14.8c0-7.8,6.3-14.1,14.1-14.1h34c7.8,0,14.1,6.3,14.1,14.1v14.8c0,7.8-6.3,14.1-14.1,14.1      h-34C381.8,797.4,375.5,791.1,375.5,783.3z"
   id="path2516" />
			</g>
			<g
   id="g2522">
				<path
   class="st3"
   d="M437.7,768.5v14.8c0,7.8-6.3,14.1-14.1,14.1h-1.4c7.1,0,12.9-5.8,12.9-12.9v-10.6c0-7.1-5.8-12.9-12.9-12.9      H391c-7.1,0-12.9,5.8-12.9,12.9v10.6c0,7.1,5.8,12.9,12.9,12.9h-1.4c-7.8,0-14.1-6.3-14.1-14.1v-14.8c0-7.8,6.3-14.1,14.1-14.1      h34C431.4,754.5,437.7,760.8,437.7,768.5z"
   id="path2520" />
			</g>
			<g
   id="g2530">
				<path
   class="st3"
   d="M392.5,787.8v-23.7c0-0.8,0.7-1.5,1.5-1.5l0,0c0.8,0,1.5,0.7,1.5,1.5v23.7c0,0.8-0.7,1.5-1.5,1.5l0,0      C393.2,789.2,392.5,788.6,392.5,787.8z"
   id="path2524" />
				<path
   class="st3"
   d="M405.1,787.8v-23.7c0-0.8,0.7-1.5,1.5-1.5l0,0c0.8,0,1.5,0.7,1.5,1.5v23.7c0,0.8-0.7,1.5-1.5,1.5l0,0      C405.8,789.2,405.1,788.6,405.1,787.8z"
   id="path2526" />
				<path
   class="st3"
   d="M417.7,787.8v-23.7c0-0.8,0.7-1.5,1.5-1.5l0,0c0.8,0,1.5,0.7,1.5,1.5v23.7c0,0.8-0.7,1.5-1.5,1.5l0,0      C418.3,789.2,417.7,788.6,417.7,787.8z"
   id="path2528" />
			</g>
		</g>
		<g
   id="g2600">
			<path
   class="st4"
   d="M343,882.3v-60.7c0-1.6,1.3-3,3-3h0c1.6,0,3,1.3,3,3v60.7c0,1.6-1.3,3-3,3h0C344.3,885.3,343,884,343,882.3z     "
   id="path2534" />
			<path
   class="st4"
   d="M54.5,882.3v-60.7c0-1.6,1.3-3,3-3h0c1.6,0,3,1.3,3,3v60.7c0,1.6-1.3,3-3,3h0     C55.8,885.3,54.5,884,54.5,882.3z"
   id="path2536" />
			<path
   class="st4"
   d="M198.7,874.2v-44.4c0-1.6,1.3-3,3-3h0c1.6,0,3,1.3,3,3v44.4c0,1.6-1.3,3-3,3h0     C200.1,877.2,198.7,875.8,198.7,874.2z"
   id="path2538" />
			<path
   class="st4"
   d="M323.4,865.3v-26.6c0-1.6,1.3-3,3-3h0c1.6,0,3,1.3,3,3v26.6c0,1.6-1.3,3-3,3h0     C324.7,868.3,323.4,867,323.4,865.3z"
   id="path2540" />
			<path
   class="st4"
   d="M305.7,865.3v-26.6c0-1.6,1.3-3,3-3l0,0c1.6,0,3,1.3,3,3v26.6c0,1.6-1.3,3-3,3l0,0     C307,868.3,305.7,867,305.7,865.3z"
   id="path2542" />
			<path
   class="st4"
   d="M287.9,865.3v-26.6c0-1.6,1.3-3,3-3l0,0c1.6,0,3,1.3,3,3v26.6c0,1.6-1.3,3-3,3l0,0     C289.2,868.3,287.9,867,287.9,865.3z"
   id="path2544" />
			<path
   class="st4"
   d="M270.2,865.3v-26.6c0-1.6,1.3-3,3-3l0,0c1.6,0,3,1.3,3,3v26.6c0,1.6-1.3,3-3,3l0,0     C271.5,868.3,270.2,867,270.2,865.3z"
   id="path2546" />
			<path
   class="st4"
   d="M252.4,865.3v-26.6c0-1.6,1.3-3,3-3l0,0c1.6,0,3,1.3,3,3v26.6c0,1.6-1.3,3-3,3l0,0     C253.7,868.3,252.4,867,252.4,865.3z"
   id="path2548" />
			<path
   class="st4"
   d="M234.7,865.3v-26.6c0-1.6,1.3-3,3-3l0,0c1.6,0,3,1.3,3,3v26.6c0,1.6-1.3,3-3,3l0,0     C236,868.3,234.7,867,234.7,865.3z"
   id="path2550" />
			<path
   class="st4"
   d="M216.9,865.3v-26.6c0-1.6,1.3-3,3-3h0c1.6,0,3,1.3,3,3v26.6c0,1.6-1.3,3-3,3h0     C218.2,868.3,216.9,867,216.9,865.3z"
   id="path2552" />
			<path
   class="st4"
   d="M179.9,865.3v-26.6c0-1.6,1.3-3,3-3l0,0c1.6,0,3,1.3,3,3v26.6c0,1.6-1.3,3-3,3l0,0     C181.2,868.3,179.9,867,179.9,865.3z"
   id="path2554" />
			<path
   class="st4"
   d="M162.2,865.3v-26.6c0-1.6,1.3-3,3-3l0,0c1.6,0,3,1.3,3,3v26.6c0,1.6-1.3,3-3,3l0,0     C163.5,868.3,162.2,867,162.2,865.3z"
   id="path2556" />
			<path
   class="st4"
   d="M144.4,865.3v-26.6c0-1.6,1.3-3,3-3h0c1.6,0,3,1.3,3,3v26.6c0,1.6-1.3,3-3,3h0     C145.7,868.3,144.4,867,144.4,865.3z"
   id="path2558" />
			<path
   class="st4"
   d="M126.7,865.3v-26.6c0-1.6,1.3-3,3-3h0c1.6,0,3,1.3,3,3v26.6c0,1.6-1.3,3-3,3h0     C128,868.3,126.7,867,126.7,865.3z"
   id="path2560" />
			<path
   class="st4"
   d="M108.9,865.3v-26.6c0-1.6,1.3-3,3-3h0c1.6,0,3,1.3,3,3v26.6c0,1.6-1.3,3-3,3h0     C110.2,868.3,108.9,867,108.9,865.3z"
   id="path2562" />
			<path
   class="st4"
   d="M91.2,865.3v-26.6c0-1.6,1.3-3,3-3h0c1.6,0,3,1.3,3,3v26.6c0,1.6-1.3,3-3,3h0     C92.5,868.3,91.2,867,91.2,865.3z"
   id="path2564" />
			<path
   class="st4"
   d="M73.4,865.3v-26.6c0-1.6,1.3-3,3-3h0c1.6,0,3,1.3,3,3v26.6c0,1.6-1.3,3-3,3h0     C74.7,868.3,73.4,867,73.4,865.3z"
   id="path2566" />
			<path
   class="st2"
   d="M631.5,882.3v-60.7c0-1.6,1.3-3,3-3h0c1.6,0,3,1.3,3,3v60.7c0,1.6-1.3,3-3,3h0     C632.8,885.3,631.5,884,631.5,882.3z"
   id="path2568" />
			<path
   class="st2"
   d="M487.2,874.2v-44.4c0-1.6,1.3-3,3-3l0,0c1.6,0,3,1.3,3,3v44.4c0,1.6-1.3,3-3,3l0,0     C488.5,877.2,487.2,875.8,487.2,874.2z"
   id="path2570" />
			<path
   class="st2"
   d="M611.9,865.3v-26.6c0-1.6,1.3-3,3-3l0,0c1.6,0,3,1.3,3,3v26.6c0,1.6-1.3,3-3,3l0,0     C613.2,868.3,611.9,867,611.9,865.3z"
   id="path2572" />
			<path
   class="st2"
   d="M594.1,865.3v-26.6c0-1.6,1.3-3,3-3l0,0c1.6,0,3,1.3,3,3v26.6c0,1.6-1.3,3-3,3l0,0     C595.5,868.3,594.1,867,594.1,865.3z"
   id="path2574" />
			<path
   class="st2"
   d="M576.4,865.3v-26.6c0-1.6,1.3-3,3-3l0,0c1.6,0,3,1.3,3,3v26.6c0,1.6-1.3,3-3,3l0,0     C577.7,868.3,576.4,867,576.4,865.3z"
   id="path2576" />
			<path
   class="st2"
   d="M558.6,865.3v-26.6c0-1.6,1.3-3,3-3l0,0c1.6,0,3,1.3,3,3v26.6c0,1.6-1.3,3-3,3l0,0     C560,868.3,558.6,867,558.6,865.3z"
   id="path2578" />
			<path
   class="st2"
   d="M540.9,865.3v-26.6c0-1.6,1.3-3,3-3l0,0c1.6,0,3,1.3,3,3v26.6c0,1.6-1.3,3-3,3l0,0     C542.2,868.3,540.9,867,540.9,865.3z"
   id="path2580" />
			<path
   class="st2"
   d="M523.1,865.3v-26.6c0-1.6,1.3-3,3-3l0,0c1.6,0,3,1.3,3,3v26.6c0,1.6-1.3,3-3,3l0,0     C524.5,868.3,523.1,867,523.1,865.3z"
   id="path2582" />
			<path
   class="st2"
   d="M505.4,865.3v-26.6c0-1.6,1.3-3,3-3l0,0c1.6,0,3,1.3,3,3v26.6c0,1.6-1.3,3-3,3l0,0     C506.7,868.3,505.4,867,505.4,865.3z"
   id="path2584" />
			<path
   class="st2"
   d="M468.4,865.3v-26.6c0-1.6,1.3-3,3-3l0,0c1.6,0,3,1.3,3,3v26.6c0,1.6-1.3,3-3,3l0,0     C469.7,868.3,468.4,867,468.4,865.3z"
   id="path2586" />
			<path
   class="st2"
   d="M450.6,865.3v-26.6c0-1.6,1.3-3,3-3l0,0c1.6,0,3,1.3,3,3v26.6c0,1.6-1.3,3-3,3l0,0     C452,868.3,450.6,867,450.6,865.3z"
   id="path2588" />
			<path
   class="st2"
   d="M432.9,865.3v-26.6c0-1.6,1.3-3,3-3l0,0c1.6,0,3,1.3,3,3v26.6c0,1.6-1.3,3-3,3l0,0     C434.2,868.3,432.9,867,432.9,865.3z"
   id="path2590" />
			<path
   class="st2"
   d="M415.1,865.3v-26.6c0-1.6,1.3-3,3-3h0c1.6,0,3,1.3,3,3v26.6c0,1.6-1.3,3-3,3h0     C416.5,868.3,415.1,867,415.1,865.3z"
   id="path2592" />
			<path
   class="st4"
   d="M397.4,865.3v-26.6c0-1.6,1.3-3,3-3l0,0c1.6,0,3,1.3,3,3v26.6c0,1.6-1.3,3-3,3l0,0     C398.7,868.3,397.4,867,397.4,865.3z"
   id="path2594" />
			<path
   class="st4"
   d="M379.6,865.3v-26.6c0-1.6,1.3-3,3-3l0,0c1.6,0,3,1.3,3,3v26.6c0,1.6-1.3,3-3,3l0,0     C381,868.3,379.6,867,379.6,865.3z"
   id="path2596" />
			<path
   class="st4"
   d="M361.9,865.3v-26.6c0-1.6,1.3-3,3-3l0,0c1.6,0,3,1.3,3,3v26.6c0,1.6-1.3,3-3,3l0,0     C363.2,868.3,361.9,867,361.9,865.3z"
   id="path2598" />
		</g>
	</g>
	<g
   id="g2658">
		<path
   class="st1"
   d="M58.5,720.1L58.5,720.1c-9.1,0-16.5-7.4-16.5-16.5V404.2c0-9.1,7.4-16.5,16.5-16.5l0,0    c9.1,0,16.5,7.4,16.5,16.5v299.5C74.9,712.7,67.5,720.1,58.5,720.1z"
   id="path2604" />
		<path
   class="st5"
   d="M58.5,711.8L58.5,711.8c-5.5,0-10-4.5-10-10V404.5c0-5.5,4.5-10,10-10l0,0c5.5,0,10,4.5,10,10v297.3    C68.4,707.3,64,711.8,58.5,711.8z"
   id="path2606" />
		<path
   class="st4"
   d="M58.5,711.5L58.5,711.5c-3.9,0-7-3.1-7-7V490.7h14v213.8C65.5,708.4,62.3,711.5,58.5,711.5z"
   id="path2608" />
		<g
   id="g2614">
			<path
   class="st1"
   d="M65.8,507.8H51.1c-7.8,0-14.1-6.3-14.1-14.1v-34c0-7.8,6.3-14.1,14.1-14.1h14.8c7.8,0,14.1,6.3,14.1,14.1v34     C79.9,501.5,73.6,507.8,65.8,507.8z"
   id="path2610" />
			<path
   class="st3"
   d="M79.9,459.7v34c0,7.8-6.3,14.1-14.1,14.1H65c6.8,0,12.3-5.5,12.3-12.3v-29.9c0-6.8-5.5-12.3-12.3-12.3h-13     c-6.8,0-12.3,5.5-12.3,12.3v29.9c0,6.8,5.5,12.3,12.3,12.3h-0.9c-7.8,0-14.1-6.3-14.1-14.1v-34c0-7.8,6.3-14.1,14.1-14.1h14.8     C73.6,445.6,79.9,451.9,79.9,459.7z"
   id="path2612" />
		</g>
		<g
   id="g2622">
			<path
   class="st3"
   d="M74,478.2H42.9c-0.8,0-1.5-0.7-1.5-1.5l0,0c0-0.8,0.7-1.5,1.5-1.5H74c0.8,0,1.5,0.7,1.5,1.5l0,0     C75.5,477.5,74.8,478.2,74,478.2z"
   id="path2616" />
			<path
   class="st3"
   d="M74,465.6H42.9c-0.8,0-1.5-0.7-1.5-1.5l0,0c0-0.8,0.7-1.5,1.5-1.5H74c0.8,0,1.5,0.7,1.5,1.5l0,0     C75.5,464.9,74.8,465.6,74,465.6z"
   id="path2618" />
			<path
   class="st3"
   d="M74,490.7H42.9c-0.8,0-1.5-0.7-1.5-1.5l0,0c0-0.8,0.7-1.5,1.5-1.5H74c0.8,0,1.5,0.7,1.5,1.5l0,0     C75.5,490.1,74.8,490.7,74,490.7z"
   id="path2620" />
		</g>
		<path
   class="st2"
   d="M142,412.6H97.6c-1.6,0-3-1.3-3-3l0,0c0-1.6,1.3-3,3-3H142c1.6,0,3,1.3,3,3l0,0    C145,411.3,143.6,412.6,142,412.6z"
   id="path2624" />
		<path
   class="st4"
   d="M142,701.1H97.6c-1.6,0-3-1.3-3-3l0,0c0-1.6,1.3-3,3-3H142c1.6,0,3,1.3,3,3l0,0    C145,699.8,143.6,701.1,142,701.1z"
   id="path2626" />
		<path
   class="st4"
   d="M142,556.9H97.6c-1.6,0-3-1.3-3-3l0,0c0-1.6,1.3-3,3-3H142c1.6,0,3,1.3,3,3l0,0    C145,555.6,143.6,556.9,142,556.9z"
   id="path2628" />
		<path
   class="st2"
   d="M133.1,432.2h-26.6c-1.6,0-3-1.3-3-3l0,0c0-1.6,1.3-3,3-3h26.6c1.6,0,3,1.3,3,3l0,0    C136.1,430.9,134.8,432.2,133.1,432.2z"
   id="path2630" />
		<path
   class="st2"
   d="M133.1,450h-26.6c-1.6,0-3-1.3-3-3l0,0c0-1.6,1.3-3,3-3h26.6c1.6,0,3,1.3,3,3l0,0    C136.1,448.6,134.8,450,133.1,450z"
   id="path2632" />
		<path
   class="st2"
   d="M133.1,467.7h-26.6c-1.6,0-3-1.3-3-3l0,0c0-1.6,1.3-3,3-3h26.6c1.6,0,3,1.3,3,3l0,0    C136.1,466.4,134.8,467.7,133.1,467.7z"
   id="path2634" />
		<path
   class="st4"
   d="M133.1,485.5h-26.6c-1.6,0-3-1.3-3-3l0,0c0-1.6,1.3-3,3-3h26.6c1.6,0,3,1.3,3,3l0,0    C136.1,484.1,134.8,485.5,133.1,485.5z"
   id="path2636" />
		<path
   class="st4"
   d="M133.1,503.2h-26.6c-1.6,0-3-1.3-3-3v0c0-1.6,1.3-3,3-3h26.6c1.6,0,3,1.3,3,3v0    C136.1,501.9,134.8,503.2,133.1,503.2z"
   id="path2638" />
		<path
   class="st4"
   d="M133.1,521h-26.6c-1.6,0-3-1.3-3-3l0,0c0-1.6,1.3-3,3-3h26.6c1.6,0,3,1.3,3,3l0,0    C136.1,519.6,134.8,521,133.1,521z"
   id="path2640" />
		<path
   class="st4"
   d="M133.1,538.7h-26.6c-1.6,0-3-1.3-3-3l0,0c0-1.6,1.3-3,3-3h26.6c1.6,0,3,1.3,3,3l0,0    C136.1,537.4,134.8,538.7,133.1,538.7z"
   id="path2642" />
		<path
   class="st4"
   d="M133.1,575.7h-26.6c-1.6,0-3-1.3-3-3l0,0c0-1.6,1.3-3,3-3h26.6c1.6,0,3,1.3,3,3l0,0    C136.1,574.4,134.8,575.7,133.1,575.7z"
   id="path2644" />
		<path
   class="st4"
   d="M133.1,593.5h-26.6c-1.6,0-3-1.3-3-3l0,0c0-1.6,1.3-3,3-3h26.6c1.6,0,3,1.3,3,3l0,0    C136.1,592.1,134.8,593.5,133.1,593.5z"
   id="path2646" />
		<path
   class="st4"
   d="M133.1,611.2h-26.6c-1.6,0-3-1.3-3-3l0,0c0-1.6,1.3-3,3-3h26.6c1.6,0,3,1.3,3,3l0,0    C136.1,609.9,134.8,611.2,133.1,611.2z"
   id="path2648" />
		<path
   class="st4"
   d="M133.1,629h-26.6c-1.6,0-3-1.3-3-3l0,0c0-1.6,1.3-3,3-3h26.6c1.6,0,3,1.3,3,3l0,0    C136.1,627.6,134.8,629,133.1,629z"
   id="path2650" />
		<path
   class="st4"
   d="M133.1,646.7h-26.6c-1.6,0-3-1.3-3-3v0c0-1.6,1.3-3,3-3h26.6c1.6,0,3,1.3,3,3v0    C136.1,645.4,134.8,646.7,133.1,646.7z"
   id="path2652" />
		<path
   class="st4"
   d="M133.1,664.5h-26.6c-1.6,0-3-1.3-3-3l0,0c0-1.6,1.3-3,3-3h26.6c1.6,0,3,1.3,3,3l0,0    C136.1,663.1,134.8,664.5,133.1,664.5z"
   id="path2654" />
		<path
   class="st4"
   d="M133.1,682.2h-26.6c-1.6,0-3-1.3-3-3l0,0c0-1.6,1.3-3,3-3h26.6c1.6,0,3,1.3,3,3l0,0    C136.1,680.9,134.8,682.2,133.1,682.2z"
   id="path2656" />
	</g>
	<g
   id="g2678">
		<g
   id="g2670">
			<g
   id="g2668">
				<circle
   class="st1"
   cx="1021.6"
   cy="129.9"
   r="35.2"
   id="circle2660" />
				<circle
   class="st2"
   cx="1021.6"
   cy="129.9"
   r="28.8"
   id="circle2662" />
				<circle
   class="st1"
   cx="1021.6"
   cy="129.9"
   r="25.1"
   id="circle2664" />
				<path
   class="st3"
   d="M1046.6,129.9c0,0.4,0,0.9,0,1.3c-0.7-13.2-11.6-23.7-25-23.7c-13.4,0-24.3,10.5-25,23.7c0-0.4,0-0.9,0-1.3      c0-13.8,11.2-25.1,25.1-25.1C1035.4,104.8,1046.6,116,1046.6,129.9z"
   id="path2666" />
			</g>
		</g>
		<path
   class="st4"
   d="M1036,123.1l-7.9-4.2v2.2h-6.2c-3.7,0-6.7,3-6.7,6.7v3.5c0,1.6-1.3,2.9-2.9,2.9h-4.6c-0.3,0-0.6,0.3-0.6,0.6    v2.7c0,0.3,0.3,0.6,0.6,0.6h4.8c3.7,0,6.7-3,6.7-6.7V128c0-1.6,1.3-2.9,2.9-2.9h6v2.2L1036,123.1z"
   id="path2672" />
		<path
   class="st4"
   d="M1012.5,121.5c1.1,0,2.1,0.3,3,0.7c0.2,0.1,0.3,0.4,0.1,0.6c-0.6,0.8-1.1,1.7-1.3,2.7    c-0.1,0.3-0.3,0.4-0.6,0.3c-0.4-0.2-0.9-0.4-1.4-0.4h-4.6c-0.3,0-0.6-0.3-0.6-0.6v-2.7c0-0.3,0.3-0.6,0.6-0.6H1012.5z"
   id="path2674" />
		<path
   class="st4"
   d="M1028.2,140.8v-2.2h-6.2c-1.2,0-2.3-0.3-3.3-0.9c-0.2-0.1-0.3-0.4-0.1-0.6c0.7-0.7,1.2-1.6,1.5-2.6    c0.1-0.3,0.4-0.4,0.6-0.2c0.4,0.3,1,0.4,1.5,0.4h6v-2.2l7.9,4.2L1028.2,140.8z"
   id="path2676" />
	</g>
	<g
   id="g2694">
		<g
   id="g2688">
			<circle
   class="st1"
   cx="866"
   cy="129.9"
   r="35.2"
   id="circle2680" />
			<circle
   class="st2"
   cx="866"
   cy="129.9"
   r="28.8"
   id="circle2682" />
			<circle
   class="st6"
   cx="866"
   cy="129.9"
   r="25.1"
   id="circle2684" />
			<path
   class="st5"
   d="M891.1,129.9c0,0.4,0,0.9,0,1.3c-0.7-13.2-11.6-23.7-25-23.7c-13.4,0-24.3,10.5-25,23.7c0-0.4,0-0.9,0-1.3     c0-13.8,11.2-25.1,25.1-25.1C879.9,104.8,891.1,116,891.1,129.9z"
   id="path2686" />
		</g>
		<path
   class="st1"
   d="M869.6,123.3L869.6,123.3c0,0.6,0.3,1.1,0.8,1.4c3,1.7,4.9,5,4.5,8.7c-0.4,3.9-4,7.6-7.9,8    c-5.4,0.6-10-3.6-10-8.9c0-3.3,1.8-6.3,4.5-7.8c0.5-0.3,0.8-0.8,0.8-1.4v0c0-1.2-1.3-2-2.4-1.4c-4.1,2.3-6.6,7-6,12.1    c0.7,5.5,5.2,9.9,10.6,10.5c7.3,0.8,13.5-4.9,13.5-12c0-4.5-2.5-8.4-6.1-10.5C871,121.3,869.6,122.1,869.6,123.3z"
   id="path2690" />
		<path
   class="st1"
   d="M866,132.5L866,132.5c-0.9,0-1.6-0.7-1.6-1.6v-14.2c0-0.9,0.7-1.6,1.6-1.6l0,0c0.9,0,1.6,0.7,1.6,1.6v14.2    C867.6,131.8,866.9,132.5,866,132.5z"
   id="path2692" />
	</g>
	<g
   id="g2712">
		<g
   id="g2706">
			<g
   id="g2704">
				<circle
   class="st1"
   cx="1177.1"
   cy="129.9"
   r="35.2"
   id="circle2696" />
				<circle
   class="st2"
   cx="1177.1"
   cy="129.9"
   r="28.8"
   id="circle2698" />
				<circle
   class="st1"
   cx="1177.1"
   cy="129.9"
   r="25.1"
   id="circle2700" />
				<path
   class="st3"
   d="M1202.2,129.9c0,0.4,0,0.9,0,1.3c-0.7-13.2-11.6-23.7-25-23.7c-13.4,0-24.3,10.5-25,23.7c0-0.4,0-0.9,0-1.3      c0-13.8,11.2-25.1,25.1-25.1C1190.9,104.8,1202.2,116,1202.2,129.9z"
   id="path2702" />
			</g>
		</g>
		<path
   class="st4"
   d="M1187.9,126.1v-1.8c0-3-2.4-5.5-5.5-5.5h-15.3c-0.5,0-0.9,0.4-0.9,0.9v2c0,0.5,0.4,0.9,0.9,0.9h14.9    c1.1,0,2,0.9,2,2v1.4h-2.2l4,7.6l4.1-7.6H1187.9z"
   id="path2708" />
		<path
   class="st4"
   d="M1166.3,133.6v1.8c0,3,2.4,5.5,5.5,5.5h15.3c0.5,0,0.9-0.4,0.9-0.9v-2c0-0.5-0.4-0.9-0.9-0.9h-14.9    c-1.1,0-2-0.9-2-2v-1.4h2.2l-4-7.6l-4,7.6H1166.3z"
   id="path2710" />
	</g>
	<g
   id="g2728">
		<g
   id="g2722">
			<circle
   class="st1"
   cx="717.6"
   cy="129.9"
   r="35.2"
   id="circle2714" />
			<circle
   class="st2"
   cx="717.6"
   cy="129.9"
   r="28.8"
   id="circle2716" />
			<circle
   class="st1"
   cx="717.6"
   cy="129.9"
   r="25.1"
   id="circle2718" />
			<path
   class="st3"
   d="M742.7,129.9c0,0.4,0,0.9,0,1.3c-0.7-13.2-11.6-23.7-25-23.7c-13.4,0-24.3,10.5-25,23.7c0-0.4,0-0.9,0-1.3     c0-13.8,11.2-25.1,25.1-25.1C731.5,104.8,742.7,116,742.7,129.9z"
   id="path2720" />
		</g>
		<path
   class="st4"
   d="M721.3,123.3L721.3,123.3c0,0.6,0.3,1.1,0.8,1.4c3,1.7,4.9,5,4.5,8.7c-0.4,3.9-4,7.6-7.9,8    c-5.4,0.6-10-3.6-10-8.9c0-3.3,1.8-6.3,4.5-7.8c0.5-0.3,0.8-0.8,0.8-1.4v0c0-1.2-1.3-2-2.4-1.4c-4.1,2.3-6.6,7-6,12.1    c0.7,5.5,5.2,9.9,10.6,10.5c7.3,0.8,13.5-4.9,13.5-12c0-4.5-2.5-8.4-6.1-10.5C722.6,121.3,721.3,122.1,721.3,123.3z"
   id="path2724" />
		<path
   class="st4"
   d="M717.6,132.5L717.6,132.5c-0.9,0-1.6-0.7-1.6-1.6v-14.2c0-0.9,0.7-1.6,1.6-1.6l0,0c0.9,0,1.6,0.7,1.6,1.6    v14.2C719.2,131.8,718.5,132.5,717.6,132.5z"
   id="path2726" />
	</g>
	<g
   id="g2744">
		<g
   id="g2740">
			<g
   id="g2738">
				<circle
   class="st1"
   cx="1325.5"
   cy="129.9"
   r="35.2"
   id="circle2730" />
				<circle
   class="st2"
   cx="1325.5"
   cy="129.9"
   r="28.8"
   id="circle2732" />
				<circle
   class="st1"
   cx="1325.5"
   cy="129.9"
   r="25.1"
   id="circle2734" />
				<path
   class="st3"
   d="M1350.5,129.9c0,0.4,0,0.9,0,1.3c-0.7-13.2-11.6-23.7-25-23.7c-13.4,0-24.3,10.5-25,23.7c0-0.4,0-0.9,0-1.3      c0-13.8,11.2-25.1,25.1-25.1C1339.3,104.8,1350.5,116,1350.5,129.9z"
   id="path2736" />
			</g>
		</g>
		<path
   class="st4"
   d="M1334.4,139.5l-0.9-1.6c0.7-0.7,1.3-1.5,1.8-2.4c0.5-0.9,0.9-1.8,1.1-2.8l1.8,0c1,0,1.8-0.8,1.8-1.8l0-2.2    c0-1-0.8-1.8-1.8-1.8l-1.8,0c-0.5-1.9-1.5-3.7-2.9-5.1l0.9-1.6c0.5-0.9,0.2-2-0.7-2.5l-1.9-1.1c-0.9-0.5-2-0.2-2.5,0.7l-0.9,1.6    c-2-0.5-4-0.5-5.9,0l-0.9-1.6c-0.5-0.9-1.6-1.2-2.5-0.7l-1.9,1.1c-0.9,0.5-1.2,1.6-0.7,2.5l0.9,1.6c-0.7,0.7-1.3,1.5-1.8,2.4    c-0.5,0.9-0.9,1.8-1.1,2.7l-1.8,0c-1,0-1.8,0.8-1.8,1.8l0,2.2c0,1,0.8,1.8,1.8,1.8l1.8,0c0.5,1.9,1.5,3.7,2.9,5.1l-0.9,1.6    c-0.5,0.9-0.2,2,0.7,2.5l1.9,1.1c0.9,0.5,2,0.2,2.5-0.7l0.9-1.6c2,0.5,4,0.5,5.9,0l0.9,1.6c0.5,0.9,1.6,1.2,2.5,0.7l1.9-1.1    C1334.6,141.5,1334.9,140.4,1334.4,139.5z M1321.9,136.1c-3.4-2-4.6-6.4-2.6-9.8c2-3.4,6.4-4.6,9.8-2.6c3.4,2,4.6,6.4,2.6,9.8    C1329.7,136.9,1325.3,138.1,1321.9,136.1z"
   id="path2742" />
	</g>
	<g
   id="g2782">
		<g
   id="g2754">
			<circle
   class="st1"
   cx="1023.9"
   cy="409.5"
   r="122.7"
   id="circle2746" />
			<circle
   class="st2"
   cx="1023.9"
   cy="409.5"
   r="100.4"
   id="circle2748" />
			<circle
   class="st1"
   cx="1023.9"
   cy="409.5"
   r="87.4"
   id="circle2750" />
			<path
   class="st3"
   d="M1111.3,409.5c0,1.5,0,3.1-0.1,4.6c-2.4-46.1-40.5-82.8-87.3-82.8c-46.7,0-84.9,36.7-87.3,82.8     c-0.1-1.5-0.1-3-0.1-4.6c0-48.3,39.1-87.4,87.4-87.4C1072.2,322.1,1111.3,361.3,1111.3,409.5z"
   id="path2752" />
		</g>
		<path
   class="st4"
   d="M983.4,457.7v-96.3c0-3.7,3.9-6,7.1-4.2l87.5,48.2c3.3,1.8,3.3,6.6,0,8.4l-87.5,48.2    C987.3,463.7,983.4,461.4,983.4,457.7z"
   id="path2756" />
		<path
   class="st1"
   d="M1347.4,409.5c0,25.1-10.2,47.9-26.6,64.3c-16.5,16.5-39.2,26.6-64.3,26.6h-135.6c22.3-23.8,36-55.8,36-91    s-13.7-67.2-36-91h135.6C1306.7,318.6,1347.4,359.3,1347.4,409.5z"
   id="path2758" />
		<path
   class="st2"
   d="M1326.7,409.5c0,19.3-7.8,36.8-20.5,49.4c-12.6,12.6-30.1,20.5-49.4,20.5h-98.2c10.9-20.9,17-44.7,17-69.9    c0-25.2-6.1-49-17-69.9h98.2C1295.4,339.7,1326.7,370.9,1326.7,409.5z"
   id="path2760" />
		<path
   class="st2"
   d="M1326.7,409.5c0,19.3-7.8,36.8-20.5,49.4c-12.6,12.6-30.1,20.5-49.4,20.5h-98.2c10.9-20.9,17-44.7,17-69.9    c0-25.2-6.1-49-17-69.9h98.2C1295.4,339.7,1326.7,370.9,1326.7,409.5z"
   id="path2762" />
		<path
   class="st1"
   d="M1314,409.5c0,16-6.5,30.4-16.9,40.9c-10.5,10.5-24.9,16.9-40.9,16.9h-79.6c6.8-18,10.5-37.4,10.5-57.8    c0-20.3-3.7-39.8-10.5-57.8h79.6C1288.1,351.8,1314,377.6,1314,409.5z"
   id="path2764" />
		<path
   class="st3"
   d="M1314,409.5c0,16-6.5,30.4-16.9,40.9c-1.4,1.4-2.8,2.7-4.3,3.9c9.7-9.9,15.8-23.5,15.8-38.5    c0-30.3-24.6-54.8-54.8-54.8h-73.9c-1-3.1-2-6.2-3.2-9.2h79.6C1288.1,351.8,1314,377.6,1314,409.5z"
   id="path2766" />
		<path
   class="st4"
   d="M1276.8,381.7h-7.4c-1.8,0-3.3,1.5-3.3,3.3v16.9l-42.8-23.6c-2.2-1.2-4.9,0.4-4.9,2.9v56.7    c0,2.5,2.7,4.1,4.9,2.9l42.8-23.6v16.9c0,1.8,1.5,3.3,3.3,3.3h7.4c1.8,0,3.3-1.5,3.3-3.3V385    C1280,383.2,1278.6,381.7,1276.8,381.7z"
   id="path2768" />
		<path
   class="st1"
   d="M700.4,409.5c0,25.1,10.2,47.9,26.6,64.3c16.5,16.5,39.2,26.6,64.3,26.6H927c-22.3-23.8-36-55.8-36-91    s13.7-67.2,36-91H791.4C741.1,318.6,700.4,359.3,700.4,409.5z"
   id="path2770" />
		<path
   class="st2"
   d="M721.1,409.5c0,19.3,7.8,36.8,20.5,49.4c12.6,12.6,30.1,20.5,49.4,20.5h98.2c-10.9-20.9-17-44.7-17-69.9    c0-25.2,6.1-49,17-69.9H791C752.4,339.7,721.1,370.9,721.1,409.5z"
   id="path2772" />
		<path
   class="st2"
   d="M721.1,409.5c0,19.3,7.8,36.8,20.5,49.4c12.6,12.6,30.1,20.5,49.4,20.5h98.2c-10.9-20.9-17-44.7-17-69.9    c0-25.2,6.1-49,17-69.9H791C752.4,339.7,721.1,370.9,721.1,409.5z"
   id="path2774" />
		<path
   class="st1"
   d="M733.8,409.5c0,16,6.5,30.4,16.9,40.9c10.5,10.5,24.9,16.9,40.9,16.9h79.6c-6.8-18-10.5-37.4-10.5-57.8    c0-20.3,3.7-39.8,10.5-57.8h-79.6C759.7,351.8,733.8,377.6,733.8,409.5z"
   id="path2776" />
		<path
   class="st3"
   d="M733.8,409.5c0,16,6.5,30.4,16.9,40.9c1.4,1.4,2.8,2.7,4.3,3.9c-9.7-9.9-15.8-23.5-15.8-38.5    c0-30.3,24.6-54.8,54.8-54.8H868c1-3.1,2-6.2,3.2-9.2h-79.6C759.7,351.8,733.8,377.6,733.8,409.5z"
   id="path2778" />
		<path
   class="st4"
   d="M771.1,381.7h7.4c1.8,0,3.3,1.5,3.3,3.3v16.9l42.8-23.6c2.2-1.2,4.9,0.4,4.9,2.9v56.7c0,2.5-2.7,4.1-4.9,2.9    l-42.8-23.6v16.9c0,1.8-1.5,3.3-3.3,3.3h-7.4c-1.8,0-3.3-1.5-3.3-3.3V385C767.8,383.2,769.3,381.7,771.1,381.7z"
   id="path2780" />
	</g>
	<g
   id="g2820">
		<path
   class="st1"
   d="M1347.4,671.7c0,25.1-10.2,47.9-26.6,64.3c-16.5,16.5-39.2,26.6-64.3,26.6h-135.6c22.3-23.8,36-55.8,36-91    s-13.7-67.2-36-91h135.6C1306.7,580.8,1347.4,621.5,1347.4,671.7z"
   id="path2784" />
		<path
   class="st2"
   d="M1326.7,671.7c0,19.3-7.8,36.8-20.5,49.4c-12.6,12.6-30.1,20.5-49.4,20.5h-98.2c10.9-20.9,17-44.7,17-69.9    c0-25.2-6.1-49-17-69.9h98.2C1295.4,601.9,1326.7,633.1,1326.7,671.7z"
   id="path2786" />
		<path
   class="st2"
   d="M1326.7,671.7c0,19.3-7.8,36.8-20.5,49.4c-12.6,12.6-30.1,20.5-49.4,20.5h-98.2c10.9-20.9,17-44.7,17-69.9    c0-25.2-6.1-49-17-69.9h98.2C1295.4,601.9,1326.7,633.1,1326.7,671.7z"
   id="path2788" />
		<path
   class="st1"
   d="M1314,671.7c0,16-6.5,30.4-16.9,40.9c-10.5,10.5-24.9,16.9-40.9,16.9h-79.6c6.8-18,10.5-37.4,10.5-57.8    c0-20.3-3.7-39.8-10.5-57.8h79.6C1288.1,614,1314,639.8,1314,671.7z"
   id="path2790" />
		<path
   class="st3"
   d="M1314,671.7c0,16-6.5,30.4-16.9,40.9c-1.4,1.4-2.8,2.7-4.3,3.9c9.7-9.9,15.8-23.5,15.8-38.5    c0-30.3-24.6-54.8-54.8-54.8h-73.9c-1-3.1-2-6.2-3.2-9.2h79.6C1288.1,614,1314,639.8,1314,671.7z"
   id="path2792" />
		<path
   class="st4"
   d="M1276.8,643.9h-7.4c-1.8,0-3.3,1.5-3.3,3.3V664l-42.8-23.6c-2.2-1.2-4.9,0.4-4.9,2.9v56.7    c0,2.5,2.7,4.1,4.9,2.9l42.8-23.6v16.9c0,1.8,1.5,3.3,3.3,3.3h7.4c1.8,0,3.3-1.5,3.3-3.3v-49.1    C1280,645.4,1278.6,643.9,1276.8,643.9z"
   id="path2794" />
		<path
   class="st1"
   d="M700.4,671.7c0,25.1,10.2,47.9,26.6,64.3c16.5,16.5,39.2,26.6,64.3,26.6H927c-22.3-23.8-36-55.8-36-91    s13.7-67.2,36-91H791.4C741.1,580.8,700.4,621.5,700.4,671.7z"
   id="path2796" />
		<path
   class="st2"
   d="M721.1,671.7c0,19.3,7.8,36.8,20.5,49.4c12.6,12.6,30.1,20.5,49.4,20.5h98.2c-10.9-20.9-17-44.7-17-69.9    c0-25.2,6.1-49,17-69.9H791C752.4,601.9,721.1,633.1,721.1,671.7z"
   id="path2798" />
		<path
   class="st2"
   d="M721.1,671.7c0,19.3,7.8,36.8,20.5,49.4c12.6,12.6,30.1,20.5,49.4,20.5h98.2c-10.9-20.9-17-44.7-17-69.9    c0-25.2,6.1-49,17-69.9H791C752.4,601.9,721.1,633.1,721.1,671.7z"
   id="path2800" />
		<path
   class="st1"
   d="M733.8,671.7c0,16,6.5,30.4,16.9,40.9c10.5,10.5,24.9,16.9,40.9,16.9h79.6c-6.8-18-10.5-37.4-10.5-57.8    c0-20.3,3.7-39.8,10.5-57.8h-79.6C759.7,614,733.8,639.8,733.8,671.7z"
   id="path2802" />
		<path
   class="st3"
   d="M733.8,671.7c0,16,6.5,30.4,16.9,40.9c1.4,1.4,2.8,2.7,4.3,3.9c-9.7-9.9-15.8-23.5-15.8-38.5    c0-30.3,24.6-54.8,54.8-54.8H868c1-3.1,2-6.2,3.2-9.2h-79.6C759.7,614,733.8,639.8,733.8,671.7z"
   id="path2804" />
		<path
   class="st4"
   d="M771.1,643.9h7.4c1.8,0,3.3,1.5,3.3,3.3V664l42.8-23.6c2.2-1.2,4.9,0.4,4.9,2.9v56.7c0,2.5-2.7,4.1-4.9,2.9    l-42.8-23.6v16.9c0,1.8-1.5,3.3-3.3,3.3h-7.4c-1.8,0-3.3-1.5-3.3-3.3v-49.1C767.8,645.4,769.3,643.9,771.1,643.9z"
   id="path2806" />
		<circle
   class="st1"
   cx="1023.9"
   cy="671.7"
   r="122.7"
   id="circle2808" />
		<circle
   class="st2"
   cx="1023.9"
   cy="671.7"
   r="100.4"
   id="circle2810" />
		<circle
   class="st6"
   cx="1023.9"
   cy="671.7"
   r="87.4"
   id="circle2812" />
		<path
   class="st5"
   d="M1111.3,671.7c0,1.5,0,3.1-0.1,4.6c-2.4-46.1-40.5-82.8-87.3-82.8c-46.7,0-84.9,36.7-87.3,82.8    c-0.1-1.5-0.1-3-0.1-4.6c0-48.3,39.1-87.4,87.4-87.4C1072.2,584.3,1111.3,623.5,1111.3,671.7z"
   id="path2814" />
		<path
   class="st1"
   d="M1050.9,724.8h-11.4c-2.9,0-5.3-2.4-5.3-5.3v-95.3c0-2.9,2.4-5.3,5.3-5.3h11.4c2.9,0,5.3,2.4,5.3,5.3v95.3    C1056.2,722.4,1053.8,724.8,1050.9,724.8z"
   id="path2816" />
		<path
   class="st1"
   d="M1008.3,724.8h-11.4c-2.9,0-5.3-2.4-5.3-5.3v-95.3c0-2.9,2.4-5.3,5.3-5.3h11.4c2.9,0,5.3,2.4,5.3,5.3v95.3    C1013.6,722.4,1011.3,724.8,1008.3,724.8z"
   id="path2818" />
	</g>
	<g
   id="g2866">
		<g
   id="g2834">
			<path
   class="st1"
   d="M684.8,832.5L684.8,832.5c0-10,8.1-18.1,18.1-18.1h642.1c10,0,18.1,8.1,18.1,18.1l0,0     c0,10-8.1,18.1-18.1,18.1H702.9C692.9,850.6,684.8,842.5,684.8,832.5z"
   id="path2822" />
			<path
   class="st5"
   d="M693.9,832.5L693.9,832.5c0-6,4.9-10.9,10.9-10.9h639.7c6,0,10.9,4.9,10.9,10.9l0,0c0,6-4.9,10.9-10.9,10.9     H704.9C698.8,843.4,693.9,838.5,693.9,832.5z"
   id="path2824" />
			<g
   id="g2830">
				<g
   id="g2828">
					<path
   class="st6"
   d="M1353.6,832.5L1353.6,832.5c0,4.2-3.4,7.7-7.7,7.7h-644c-4.2,0-7.7-3.4-7.7-7.7l0,0c0-4.2,3.4-7.7,7.7-7.7       h644C1350.1,824.8,1353.6,828.3,1353.6,832.5z"
   id="path2826" />
				</g>
			</g>
			<path
   class="st4"
   d="M694.2,832.5L694.2,832.5c0-4.2,3.4-7.7,7.7-7.7H859c4.2,0,7.7,3.4,7.7,7.7v0c0,4.2-3.4,7.7-7.7,7.7H701.9     C697.7,840.2,694.2,836.8,694.2,832.5z"
   id="path2832" />
		</g>
		<g
   id="g2848">
			<g
   id="g2846">
				<path
   class="st4"
   d="M709.3,877.7c-0.9-0.9-1.3-2.2-1.3-3.9v-8.4c0-1.7,0.5-3,1.4-3.9c0.9-0.9,2.2-1.4,3.9-1.4      c1.7,0,3,0.5,3.9,1.4c0.9,0.9,1.3,2.2,1.3,3.9v8.4c0,1.7-0.5,3-1.4,3.9s-2.2,1.4-3.9,1.4C711.5,879.1,710.2,878.6,709.3,877.7z       M715.3,875.9c0.4-0.5,0.7-1.2,0.7-2.1v-8.4c0-0.9-0.2-1.6-0.6-2.1c-0.4-0.5-1.1-0.7-2-0.7c-0.9,0-1.6,0.2-2,0.7      c-0.4,0.5-0.7,1.2-0.7,2.1v8.4c0,0.9,0.2,1.6,0.7,2.1c0.4,0.5,1.1,0.7,2,0.7C714.2,876.6,714.9,876.4,715.3,875.9z"
   id="path2836" />
				<path
   class="st4"
   d="M726.9,878.9h-2.6v-15.7l-2.6,1.6v-2.7l2.6-1.8h2.6V878.9z"
   id="path2838" />
				<path
   class="st4"
   d="M730.8,865.7h2.6v2.6h-2.6V865.7z M730.8,876.3h2.6v2.6h-2.6V876.3z"
   id="path2840" />
				<path
   class="st4"
   d="M740.2,879.1c0,0-0.4-0.2-1.2-0.6s-1.4-0.9-1.9-1.6c-0.5-0.7-0.8-1.6-0.9-2.6h2.7c0.1,0.5,0.2,1,0.5,1.3      c0.3,0.3,0.6,0.6,1,0.8c0.4,0.2,0.9,0.2,1.4,0.2c0.9,0,1.5-0.2,2-0.7c0.5-0.5,0.7-1.1,0.7-1.9v-0.6c0-0.9-0.2-1.6-0.7-2.1      c-0.5-0.5-1.1-0.8-1.9-0.8h-1.3V868h1.3c0.7,0,1.3-0.2,1.7-0.6c0.4-0.4,0.6-1,0.6-1.8v-0.6c0-0.7-0.2-1.3-0.6-1.7      s-1-0.6-1.8-0.6c-0.4,0-0.8,0.1-1.2,0.2s-0.6,0.4-0.9,0.8s-0.4,0.8-0.5,1.3h-2.6c0.2-1,0.5-1.9,1-2.6c0.5-0.7,1.1-1.3,1.8-1.6      s1.6-0.6,2.5-0.6c1.6,0,2.8,0.4,3.7,1.3s1.3,2,1.3,3.6v0.3c0,0.9-0.3,1.7-0.8,2.4s-1.2,1.2-2.1,1.5c1,0.2,1.8,0.7,2.4,1.5      c0.6,0.8,0.8,1.8,0.8,3v0.3c0,1.1-0.2,2-0.6,2.8c-0.4,0.8-1,1.3-1.8,1.7c-0.8,0.4-1.8,0.6-2.9,0.6      C740.7,879.1,740.2,879.1,740.2,879.1z"
   id="path2842" />
				<path
   class="st4"
   d="M750.5,876.6l6.5-8.6c0.4-0.5,0.7-1,0.9-1.5s0.3-1,0.3-1.5v0c0-0.7-0.2-1.3-0.7-1.7c-0.4-0.4-1-0.6-1.8-0.6      c-0.8,0-1.4,0.2-1.8,0.7c-0.5,0.4-0.8,1.1-0.9,1.9v0h-2.7v0c0.2-1.1,0.5-2,0.9-2.7c0.5-0.8,1.1-1.3,1.8-1.7      c0.7-0.4,1.6-0.6,2.6-0.6c1.1,0,2,0.2,2.8,0.6c0.8,0.4,1.4,0.9,1.8,1.7c0.4,0.7,0.6,1.6,0.6,2.6v0c0,0.7-0.1,1.3-0.4,2.1      c-0.3,0.7-0.6,1.4-1.1,2.1l-5.4,7.3h7v2.5h-10.4V876.6z"
   id="path2844" />
			</g>
		</g>
		<g
   id="g2864">
			<g
   id="g2862">
				<path
   class="st4"
   d="M1277.4,871v2.5h-8.6V871H1277.4z"
   id="path2850" />
				<path
   class="st4"
   d="M1282.5,877.7c-0.9-0.9-1.3-2.2-1.3-3.9v-8.4c0-1.7,0.5-3,1.4-3.9c0.9-0.9,2.2-1.4,3.9-1.4      c1.7,0,3,0.5,3.9,1.4c0.9,0.9,1.3,2.2,1.3,3.9v8.4c0,1.7-0.5,3-1.4,3.9s-2.2,1.4-3.9,1.4      C1284.7,879.1,1283.4,878.6,1282.5,877.7z M1288.5,875.9c0.4-0.5,0.7-1.2,0.7-2.1v-8.4c0-0.9-0.2-1.6-0.6-2.1      c-0.4-0.5-1.1-0.7-2-0.7c-0.9,0-1.6,0.2-2,0.7c-0.4,0.5-0.7,1.2-0.7,2.1v8.4c0,0.9,0.2,1.6,0.7,2.1c0.4,0.5,1.1,0.7,2,0.7      C1287.4,876.6,1288.1,876.4,1288.5,875.9z"
   id="path2852" />
				<path
   class="st4"
   d="M1298.8,879.1c0,0-0.4-0.2-1.2-0.6s-1.4-0.9-1.9-1.6c-0.5-0.7-0.8-1.6-0.9-2.6h2.7c0.1,0.5,0.2,1,0.5,1.3      c0.3,0.3,0.6,0.6,1,0.8c0.4,0.2,0.9,0.2,1.4,0.2c0.9,0,1.5-0.2,2-0.7c0.5-0.5,0.7-1.1,0.7-1.9v-0.6c0-0.9-0.2-1.6-0.7-2.1      c-0.5-0.5-1.1-0.8-1.9-0.8h-1.3V868h1.3c0.7,0,1.3-0.2,1.7-0.6c0.4-0.4,0.6-1,0.6-1.8v-0.6c0-0.7-0.2-1.3-0.6-1.7      s-1-0.6-1.8-0.6c-0.4,0-0.8,0.1-1.2,0.2s-0.6,0.4-0.9,0.8s-0.4,0.8-0.5,1.3h-2.6c0.2-1,0.5-1.9,1-2.6c0.5-0.7,1.1-1.3,1.8-1.6      s1.6-0.6,2.5-0.6c1.6,0,2.8,0.4,3.7,1.3s1.3,2,1.3,3.6v0.3c0,0.9-0.3,1.7-0.8,2.4s-1.2,1.2-2.1,1.5c1,0.2,1.8,0.7,2.4,1.5      c0.6,0.8,0.8,1.8,0.8,3v0.3c0,1.1-0.2,2-0.6,2.8c-0.4,0.8-1,1.3-1.8,1.7c-0.8,0.4-1.8,0.6-2.9,0.6      C1299.3,879.1,1298.8,879.1,1298.8,879.1z"
   id="path2854" />
				<path
   class="st4"
   d="M1309.1,865.7h2.6v2.6h-2.6V865.7z M1309.1,876.3h2.6v2.6h-2.6V876.3z"
   id="path2856" />
				<path
   class="st4"
   d="M1316.6,877.7c-0.9-0.9-1.3-2.2-1.3-3.9v-8.4c0-1.7,0.5-3,1.4-3.9c0.9-0.9,2.2-1.4,3.9-1.4      c1.7,0,3,0.5,3.9,1.4c0.9,0.9,1.3,2.2,1.3,3.9v8.4c0,1.7-0.5,3-1.4,3.9s-2.2,1.4-3.9,1.4      C1318.8,879.1,1317.5,878.6,1316.6,877.7z M1322.6,875.9c0.4-0.5,0.7-1.2,0.7-2.1v-8.4c0-0.9-0.2-1.6-0.6-2.1      c-0.4-0.5-1.1-0.7-2-0.7c-0.9,0-1.6,0.2-2,0.7c-0.4,0.5-0.7,1.2-0.7,2.1v8.4c0,0.9,0.2,1.6,0.7,2.1c0.4,0.5,1.1,0.7,2,0.7      C1321.5,876.6,1322.2,876.4,1322.6,875.9z"
   id="path2858" />
				<path
   class="st4"
   d="M1329.4,873.8l6.2-13.4h2.7l-6.1,13.3h9.1v2.4h-11.9V873.8z M1337.4,868h2.5v10.9h-2.5V868z"
   id="path2860" />
			</g>
		</g>
	</g>
	<g
   id="g2896">
		<path
   class="st1"
   d="M1325.2,264.6H722.6c-20.9,0-37.8-16.9-37.8-37.8v0c0-20.9,16.9-37.8,37.8-37.8h602.5    c20.9,0,37.8,16.9,37.8,37.8v0C1363,247.7,1346.1,264.6,1325.2,264.6z"
   id="path2868" />
		<path
   class="st2"
   d="M1325.3,254.1H722.5c-15.1,0-27.4-12.3-27.4-27.4v0c0-15.1,12.3-27.4,27.4-27.4h602.7    c15.1,0,27.4,12.3,27.4,27.4v0C1352.6,241.9,1340.4,254.1,1325.3,254.1z"
   id="path2870" />
		<path
   class="st1"
   d="M1324.5,245.3H723.3c-10.2,0-18.5-8.3-18.5-18.5v0c0-10.2,8.3-18.5,18.5-18.5h601.1    c10.2,0,18.5,8.3,18.5,18.5v0C1343,237,1334.7,245.3,1324.5,245.3z"
   id="path2872" />
		<path
   class="st3"
   d="M1341.8,233.5c0.2-0.9,0.3-1.9,0.3-3c0-8.2-6.6-14.8-14.8-14.8H720.5c-4.1,0-7.8,1.7-10.5,4.3    c-2.7,2.7-4.3,6.4-4.3,10.5c0,1,0.1,2,0.3,2.9c-0.8-2.1-1.2-4.3-1.2-6.6c0-5.1,2.1-9.7,5.4-13.1c3.4-3.4,8-5.4,13.1-5.4h601.1    c10.3,0,18.6,8.3,18.6,18.5C1343,229.1,1342.6,231.4,1341.8,233.5z"
   id="path2874" />
		<g
   id="g2892">
			<g
   id="g2890">
				<g
   id="g2888">
					<path
   class="st4"
   d="M730.4,234.9c0,0-0.4-0.1-1.2-0.3c-0.8-0.2-1.5-0.4-2.2-0.8s-1.3-0.8-1.9-1.3l1.6-2       c0.7,0.6,1.5,1.1,2.3,1.4c0.8,0.3,1.8,0.5,2.8,0.5c1.3,0,2.4-0.2,3.1-0.7s1.1-1.2,1.1-2.1v0c0-0.6-0.2-1.2-0.5-1.5       s-0.8-0.7-1.3-0.8c-0.5-0.2-1.2-0.4-2.1-0.5c0,0-0.1,0-0.1,0c0,0-0.1,0-0.1,0l-0.2,0c-1.2-0.2-2.2-0.5-3-0.7       c-0.8-0.3-1.4-0.8-2-1.5c-0.6-0.7-0.8-1.7-0.8-3v0c0-1.1,0.3-2.1,0.8-2.9c0.5-0.8,1.3-1.4,2.2-1.9s2.2-0.6,3.6-0.6       c0.7,0,1.3,0.1,2,0.2s1.3,0.4,1.9,0.6c0.6,0.3,1.2,0.6,1.8,1.1l-1.5,2.1c-0.7-0.5-1.4-0.9-2.1-1.2c-0.7-0.3-1.4-0.4-2.1-0.4       c-1.3,0-2.2,0.3-3,0.8c-0.7,0.5-1.1,1.2-1.1,2.1v0c0,0.6,0.2,1.1,0.5,1.5s0.8,0.6,1.4,0.8c0.5,0.2,1.3,0.4,2.3,0.5       c0,0,0.1,0,0.1,0c0,0,0.1,0,0.1,0c0,0,0.1,0,0.1,0s0.1,0,0.1,0c1.1,0.2,2.1,0.5,2.8,0.8c0.8,0.3,1.4,0.8,1.9,1.5       c0.5,0.7,0.8,1.7,0.8,2.9v0c0,1.1-0.3,2.1-0.8,2.9c-0.5,0.8-1.3,1.4-2.3,1.8c-1,0.4-2.2,0.6-3.7,0.6       C730.9,234.9,730.4,234.9,730.4,234.9z"
   id="path2876" />
					<path
   class="st4"
   d="M745.6,234.9c0,0-0.4-0.2-1.3-0.7c-0.9-0.5-1.5-1.1-2-2c-0.5-0.9-0.7-2-0.7-3.2v-1.5       c0-1.3,0.2-2.4,0.7-3.4c0.4-0.9,1.1-1.6,1.9-2.1c0.8-0.5,1.8-0.7,3-0.7c1.1,0,2,0.3,2.8,0.8c0.8,0.6,1.4,1.4,1.8,2.4       s0.6,2.3,0.6,3.8v0.9h-8.9v-2.1h6.4c-0.1-1.1-0.4-1.9-0.8-2.5c-0.5-0.6-1.1-0.9-1.9-0.9c-1,0-1.7,0.3-2.3,1       c-0.5,0.6-0.8,1.6-0.8,2.7v1.7c0,1.1,0.3,1.9,0.9,2.5c0.6,0.6,1.4,0.9,2.5,0.9c0.5,0,1-0.1,1.6-0.3c0.5-0.2,1-0.5,1.4-0.9       l1.7,1.7c-0.7,0.6-1.4,1.1-2.2,1.5c-0.8,0.3-1.6,0.5-2.5,0.5C746.2,234.9,745.6,234.9,745.6,234.9z"
   id="path2878" />
					<path
   class="st4"
   d="M756.6,233.9c-0.8-0.7-1.2-1.7-1.2-3.1c0-1.3,0.4-2.3,1.1-2.9c0.7-0.7,1.9-1,3.4-1h3.8l0.2,2.1h-3.9       c-0.7,0-1.2,0.2-1.5,0.5c-0.3,0.3-0.5,0.8-0.5,1.4c0,0.7,0.2,1.2,0.7,1.5c0.4,0.3,1.1,0.5,2,0.5c1,0,1.7-0.1,2.2-0.3       s0.7-0.5,0.7-1l0.3,1.9c-0.2,0.4-0.5,0.6-0.8,0.9c-0.3,0.2-0.7,0.4-1.2,0.5c-0.4,0.1-0.9,0.2-1.5,0.2       C758.6,234.9,757.4,234.6,756.6,233.9z M763.5,226.3c0-0.9-0.2-1.5-0.7-2s-1.1-0.7-2-0.7c-0.5,0-1,0.1-1.5,0.2       c-0.5,0.2-1,0.4-1.3,0.7l-1.9-1.3c0.5-0.6,1.2-1.1,2-1.4c0.8-0.3,1.7-0.5,2.7-0.5c1.1,0,2,0.2,2.8,0.6c0.8,0.4,1.4,0.9,1.8,1.7       c0.4,0.7,0.6,1.6,0.6,2.7v8.5h-2.5V226.3z"
   id="path2880" />
					<path
   class="st4"
   d="M769.9,221.5h2.6v13.2h-2.6V221.5z M776.3,224c-0.3-0.1-0.8-0.2-1.2-0.2c-0.8,0-1.5,0.2-1.9,0.7       c-0.5,0.5-0.7,1.1-0.7,1.9l-0.3-2.5c0.4-0.8,0.9-1.4,1.6-1.8s1.4-0.7,2.1-0.7c0.6,0,1.1,0.1,1.6,0.3s0.9,0.4,1.3,0.8l-1.7,2.3       C776.9,224.3,776.6,224.1,776.3,224z"
   id="path2882" />
					<path
   class="st4"
   d="M784.5,234.9c0,0-0.4-0.2-1.3-0.7c-0.9-0.5-1.5-1.1-2-2c-0.5-0.9-0.7-1.9-0.7-3.1V227       c0-1.2,0.2-2.2,0.7-3.1s1.1-1.5,2-1.9s1.9-0.7,3.1-0.7c0.7,0,1.3,0.1,1.9,0.2c0.6,0.2,1.2,0.4,1.6,0.7c0.5,0.3,0.9,0.7,1.2,1.1       l-1.9,1.7c-0.4-0.4-0.8-0.8-1.3-1c-0.5-0.2-1-0.3-1.6-0.3c-1,0-1.8,0.3-2.3,0.8c-0.6,0.6-0.8,1.4-0.8,2.4v2.2       c0,1,0.3,1.9,0.8,2.4s1.3,0.9,2.3,0.9c0.6,0,1.1-0.1,1.6-0.4c0.5-0.2,0.9-0.6,1.3-1l1.9,1.8c-0.3,0.4-0.7,0.8-1.2,1.1       s-1,0.5-1.6,0.7c-0.6,0.2-1.3,0.2-1.9,0.2C785.1,234.9,784.5,234.9,784.5,234.9z"
   id="path2884" />
					<path
   class="st4"
   d="M794,216.2h2.6v18.5H794V216.2z M802,226.7c0-0.9-0.2-1.7-0.7-2.2s-1.2-0.8-2-0.8c-0.8,0-1.5,0.2-2,0.7       s-0.7,1.1-0.7,1.9l-0.3-2.5c0.4-0.8,0.9-1.4,1.6-1.8c0.7-0.4,1.4-0.6,2.2-0.6c1.4,0,2.5,0.5,3.3,1.4c0.8,0.9,1.2,2.3,1.2,4v8       H802V226.7z"
   id="path2886" />
				</g>
			</g>
		</g>
		<path
   class="st4"
   d="M1308.9,215.3c-4.2-4.2-11-4.2-15.2,0c-4.2,4.2-4.2,11,0,15.2c3.9,3.9,10,4.2,14.2,0.8l1.6,1.6    c-0.4,0.4-0.4,1.1,0,1.6l6.6,6.6c0.4,0.4,1.1,0.4,1.6,0l1.8-1.8c0.4-0.4,0.4-1.1,0-1.6l-6.6-6.6c-0.4-0.4-1.1-0.4-1.6,0l-1.6-1.6    C1313.1,225.3,1312.8,219.2,1308.9,215.3z M1295.7,228.5c-3.1-3.1-3.1-8.1,0-11.2c3.1-3.1,8.1-3.1,11.2,0c3.1,3.1,3.1,8.1,0,11.2    C1303.9,231.6,1298.8,231.6,1295.7,228.5z"
   id="path2894" />
	</g>
</g>
</svg>
